<?xml version="1.0" standalone="no"?><!DOCTYPE svg PUBLIC "-//W3C//DTD SVG 1.1//EN" "http://www.w3.org/Graphics/SVG/1.1/DTD/svg11.dtd"><svg t="1784190270872" class="icon" viewBox="0 0 1024 1024" version="1.1" xmlns="http://www.w3.org/2000/svg" p-id="13786" xmlns:xlink="http://www.w3.org/1999/xlink" width="128" height="128"><path d="M888.911 361.177h-1.696a63.435 63.435 0 0 1-54.92-31.69l-2.054-3.552a63.448 63.448 0 0 1-0.015-63.474l0.846-1.464c25.492-44.154 10.364-100.615-33.79-126.107L695.946 76.383C681.409 67.99 665.534 64.001 649.874 64c-31.906-0.002-62.935 16.556-80.034 46.173l-0.017 0.027a66.241 66.241 0 0 1-57.366 33.121H512l-2.036 0.001h-0.036a63.437 63.437 0 0 1-54.941-31.721c-17.404-30.145-48.991-46.997-81.465-46.998-15.942-0.001-32.096 4.06-46.895 12.604l-99.909 57.682c-44.154 25.493-59.282 81.953-33.79 126.107a66.375 66.375 0 0 1-0.017 66.403l-0.376 0.651a66.308 66.308 0 0 1-57.407 33.125h-0.039c-50.985 0-92.316 41.331-92.316 92.316v117.014c0 50.984 41.331 92.316 92.316 92.316h1.696a63.435 63.435 0 0 1 54.92 31.69l1.206 2.086a66.376 66.376 0 0 1 0.017 66.402h-0.001c-25.492 44.154-10.363 100.614 33.79 126.106l101.337 58.508C342.591 956.009 358.466 960 374.126 960c31.906 0 62.935-16.556 80.035-46.174l0.016-0.027a66.237 66.237 0 0 1 57.364-33.12H512l2.036-0.001h0.036a63.437 63.437 0 0 1 54.941 31.721l0.825 1.428C586.937 943.441 617.97 960 649.873 960c15.663 0 31.533-3.989 46.072-12.384l101.337-58.507c44.154-25.492 59.282-81.952 33.79-126.106a66.375 66.375 0 0 1 0.017-66.403l0.376-0.651a66.306 66.306 0 0 1 57.407-33.125h0.039c50.985 0 92.316-41.332 92.316-92.316V453.493c0.001-50.985-41.331-92.316-92.316-92.316z m12.317 209.33c0 6.791-5.525 12.316-12.355 12.316-52.072 0-100.609 28.006-127.045 73.741-26.102 45.155-26.116 101.268-0.037 146.438 3.396 5.881 1.374 13.429-4.508 16.824l-101.338 58.508c-1.94 1.12-3.927 1.665-6.071 1.665-1.687 0-7.445-0.445-10.765-6.195l-0.813-1.406c-25.541-44.239-73.142-71.721-124.298-71.721l-2.457 0.001c-52.079 0-100.608 28.019-126.647 73.121l-0.069 0.121c-3.316 5.638-9.021 6.079-10.698 6.079-2.146 0-4.132-0.545-6.072-1.666l-101.337-58.508c-3.65-2.107-5.136-5.23-5.738-7.478-0.602-2.248-0.877-5.694 1.23-9.346 26.079-45.168 26.064-101.279-0.04-146.445l-1.2-2.076c-25.547-44.2-73.131-71.658-124.184-71.658h-1.696c-6.791 0-12.316-5.525-12.316-12.316V453.493c0-6.791 5.525-12.316 12.355-12.316 52.072 0 100.608-28.007 127.045-73.741 26.102-45.156 26.116-101.269 0.037-146.438-3.396-5.882-1.373-13.43 4.508-16.825l99.91-57.683c2.198-1.27 4.452-1.887 6.891-1.887 1.91 0 8.437 0.506 12.186 6.998 25.541 44.239 73.141 71.722 124.298 71.722l2.455-0.001c51.677 0 99.859-27.59 126.042-72.08l0.114-0.188 0.509-0.881c3.308-5.728 9.063-6.173 10.748-6.173 2.147 0 4.136 0.545 6.076 1.665l101.336 58.507c5.882 3.396 7.903 10.943 4.515 16.813l-0.853 1.477c-25.557 44.266-25.543 99.253 0.042 143.52l2.045 3.537c25.547 44.2 73.131 71.658 124.184 71.658h1.696c6.791 0 12.316 5.525 12.316 12.316v117.014z" fill="#333333" p-id="13787"></path><path d="M512 352c-88.365 0-160 71.634-160 160 0 88.365 71.635 160 160 160s160-71.635 160-160c0-88.366-71.635-160-160-160z m0 240c-44.112 0-80-35.888-80-80s35.888-80 80-80 80 35.888 80 80-35.888 80-80 80z" fill="#333333" p-id="13788"></path></svg>