<?xml version="1.0" standalone="no"?><!DOCTYPE svg PUBLIC "-//W3C//DTD SVG 1.1//EN" "http://www.w3.org/Graphics/SVG/1.1/DTD/svg11.dtd"><svg t="1784338170772" class="icon" viewBox="0 0 1066 1024" version="1.1" xmlns="http://www.w3.org/2000/svg" p-id="10555" xmlns:xlink="http://www.w3.org/1999/xlink" width="208.203125" height="200"><path d="M527.45467345 205.69773841c-35.55450431 0-65.86647025 12.67890963-91.04919402 37.83073481-25.13122542 25.14667543-37.72258767 55.5667878-37.72258767 91.1367414v96.7294693c0 35.68325051 12.596512 65.99006669 37.72258767 91.24488855 25.18272376 25.15182518 55.4946897 37.72258767 91.04919402 37.72258694 35.53390526 0 65.86647025-12.57076248 91.02859497-37.72258694 25.13122542-25.25482186 37.72258767-55.5667878 37.72258767-91.24488855V334.66521463c0-35.57510408-12.596512-65.99006669-37.72258767-91.13674141C593.31599394 218.37664803 562.98342896 205.69773841 527.44952368 205.69773841z m0 419.15073434c-46.61636368 0-91.56417879 3.75938407-134.91039221 11.17515557-43.3668139 7.52391791-81.13575014 17.95234657-113.32225799 31.38313285-12.88490295 5.37643432-24.39994779 11.07215889-34.55028573 17.09232346-10.11428817 6.128311-17.83905037 11.60774198-23.12278756 16.44344346-5.27343766 4.83570075-9.25426507 9.1358184-11.95793152 12.6789089-2.68306741 3.65638741-4.02717598 6.55574767-4.02717599 8.70323198v63.73443595c0 8.81652817 3.16715216 16.44344346 9.44480913 22.78804802 6.31885505 6.23130766 13.88397249 9.45510864 22.7622985 9.45510865h579.35714722c8.87832674 0 16.43314394-3.22380098 22.76229849-9.45510865 6.27765623-6.34460457 9.44480913-13.97151915 9.44480913-22.78804802v-63.51814238c0-2.14748359-1.36470762-5.04684457-4.04777503-8.70323197-2.67791765-3.54824098-6.67419434-7.84320815-11.94248223-12.68405939-5.27858742-4.83570075-13.00334963-10.31513246-23.12793732-16.44344345-10.14518746-6.0150148-21.67568231-11.71073937-34.56058454-17.30346656-32.16590881-13.43078629-69.9554441-23.85921494-113.30165895-31.38313285-43.34621413-7.41577148-88.29402924-11.17515556-134.9000934-11.17515557z m0-483.63704697c35.01892122 0 67.34962455 8.70323197 96.92001407 26.00669853 29.6115876 17.30346656 53.06396492 40.73524483 70.27473433 70.39833077 17.25196822 29.56008927 25.90885163 61.90109286 25.90885162 97.04875954v96.7294693c0 26.86672235-5.18074052 52.33783705-15.6040194 76.30519843-10.37178056 24.0755078-24.87373376 44.92721534-43.49040962 62.76626571 48.95954108 7.74021149 92.43965117 19.02351347 130.51242837 34.07135073 38.02127814 15.04268678 67.82855955 32.77873977 89.37549568 53.3060073 21.53148683 20.41912111 32.33585382 42.02270531 32.33585381 64.69745645v63.51814238c0 26.65557853-9.42935912 49.4384768-28.29322854 68.35384385-18.84841942 18.91536704-41.64161649 28.37562546-68.27144623 28.37562545H237.77609983c-26.62982973 0-49.41787703-9.4602584-68.27144623-28.37562545C150.6407849 835.49758172 141.21142578 812.71468345 141.21142578 786.05910493v-63.7292862c0-22.67990089 10.77346769-44.28348509 32.31525406-64.7026062 21.56753516-20.52726754 51.328468-38.26332125 89.26734923-53.3060073 37.98522982-15.04783654 81.43444062-26.33113853 130.37338265-33.85505717a196.48704505 196.48704505 0 0 1-43.22776819-62.87441214c-10.41812913-23.96736137-15.62461845-49.33032966-15.62461845-76.197052V334.66521463c0-35.03437051 8.64143339-67.49382003 25.93460116-97.04875955 17.25196822-29.66308594 40.67344698-53.19786088 70.26443482-70.39833077C460.08959961 149.91465775 492.37910486 141.21142578 527.45467345 141.21142578z" p-id="10556" fill="#e6e6e6"></path></svg>